<mxfile> 
  <diagram>
    <mxGraphModel pageWidth="320" pageHeight="200">
      <root>
        <mxCell vertex="1" >
          <mxGeometry x="20" y="20" width="40" height="80" as="geometry" />
        </mxCell>
      </root>
    </mxGraphModel>
  </diagram>
</mxfile>
